<?xml version="1.0" encoding="UTF-8"?>
<svg xmlns="http://www.w3.org/2000/svg" xmlns:xlink="http://www.w3.org/1999/xlink" width="192pt" height="144pt" viewBox="0 0 192 144" version="1.1">
<g id="surface1">
<path style=" stroke:none;fill-rule:nonzero;fill:rgb(42.745098%,75.686275%,50.196078%);fill-opacity:1;" d="M 168 72 C 168 52.121094 160.972656 35.148438 146.910156 21.089844 C 132.851562 7.027344 115.878906 0 96 0 C 76.121094 0 59.148438 7.027344 45.089844 21.089844 C 31.027344 35.148438 24 52.121094 24 72 C 24 91.878906 31.027344 108.851562 45.089844 122.910156 C 59.148438 136.972656 76.121094 144 96 144 C 115.878906 144 132.851562 136.972656 146.910156 122.910156 C 160.972656 108.851562 168 91.878906 168 72 "/>
<path style=" stroke:none;fill-rule:nonzero;fill:rgb(36.078431%,63.137255%,36.470588%);fill-opacity:1;" d="M 96 0 L 96 144 C 135.765625 144 168 111.765625 168 72 C 168 32.234375 135.765625 0 96 0 Z M 96 0 "/>
<path style=" stroke:none;fill-rule:nonzero;fill:rgb(94.901961%,94.901961%,95.686275%);fill-opacity:1;" d="M 85.714844 103.480469 L 54.542969 72.308594 L 65.457031 61.402344 L 85.714844 81.660156 L 123.972656 43.402344 L 134.882812 54.308594 L 85.714844 103.480469 "/>
<path style=" stroke:none;fill-rule:nonzero;fill:rgb(87.45098%,87.45098%,88.235294%);fill-opacity:1;" d="M 96 93.195312 L 134.882812 54.308594 L 123.972656 43.402344 L 96 71.375 L 96 93.195312 "/>
</g>
</svg>
