<?xml version="1.0" encoding="UTF-8"?>
<svg xmlns="http://www.w3.org/2000/svg" xmlns:xlink="http://www.w3.org/1999/xlink" width="256pt" height="192pt" viewBox="0 0 256 192" version="1.1">
<g id="surface1">
<path style=" stroke:none;fill-rule:nonzero;fill:rgb(42.745098%,75.686275%,50.196078%);fill-opacity:1;" d="M 224 96 C 224 69.492188 214.628906 46.863281 195.882812 28.117188 C 177.136719 9.371094 154.507812 0 128 0 C 101.492188 0 78.863281 9.371094 60.117188 28.117188 C 41.371094 46.863281 32 69.492188 32 96 C 32 122.507812 41.371094 145.136719 60.117188 163.882812 C 78.863281 182.628906 101.492188 192 128 192 C 154.507812 192 177.136719 182.628906 195.882812 163.882812 C 214.628906 145.136719 224 122.507812 224 96 "/>
<path style=" stroke:none;fill-rule:nonzero;fill:rgb(36.078431%,63.137255%,36.470588%);fill-opacity:1;" d="M 128 0 L 128 192 C 181.019531 192 224 149.019531 224 96 C 224 42.980469 181.019531 0 128 0 Z M 128 0 "/>
<path style=" stroke:none;fill-rule:nonzero;fill:rgb(94.901961%,94.901961%,95.686275%);fill-opacity:1;" d="M 114.285156 137.972656 L 72.726562 96.414062 L 87.273438 81.871094 L 114.285156 108.882812 L 165.296875 57.871094 L 179.84375 72.414062 L 114.285156 137.972656 "/>
<path style=" stroke:none;fill-rule:nonzero;fill:rgb(87.45098%,87.45098%,88.235294%);fill-opacity:1;" d="M 128 124.261719 L 179.84375 72.414062 L 165.296875 57.871094 L 128 95.167969 L 128 124.261719 "/>
</g>
</svg>
